<?xml version="1.0" encoding="UTF-8" standalone="no"?>
<svg width="142px" height="142px" xmlns="http://www.w3.org/2000/svg" version="1.1">
    <title>irof</title>
    <description>Created with Sketch (http://www.bohemiancoding.com/sketch)</description>
    <defs>
        <linearGradient id="gradient-1" x1="50%" y1="0%" x2="50%" y2="100%">
            <stop offset="0%" style="stop-color:rgb(255,255,255); stop-opacity:100"></stop>
            <stop offset="100%" style="stop-color:rgb(0,0,0); stop-opacity:100"></stop>
        </linearGradient>
        <linearGradient id="gradient-2" x1="50%" y1="0%" x2="50%" y2="100%">
            <stop offset="0%" style="stop-color:rgb(255,255,255); stop-opacity:100"></stop>
            <stop offset="100%" style="stop-color:rgb(0,0,0); stop-opacity:100"></stop>
        </linearGradient>
        <linearGradient id="gradient-3" x1="50%" y1="0%" x2="50%" y2="100%">
            <stop offset="0%" style="stop-color:rgb(255,255,255); stop-opacity:100"></stop>
            <stop offset="100%" style="stop-color:rgb(0,0,0); stop-opacity:100"></stop>
        </linearGradient>
        <linearGradient id="gradient-4" x1="50%" y1="0%" x2="50%" y2="100%">
            <stop offset="0%" style="stop-color:rgb(255,255,255); stop-opacity:100"></stop>
            <stop offset="100%" style="stop-color:rgb(0,0,0); stop-opacity:100"></stop>
        </linearGradient>
        <linearGradient id="gradient-5" x1="50%" y1="0%" x2="50%" y2="100%">
            <stop offset="0%" style="stop-color:rgb(255,255,255); stop-opacity:100"></stop>
            <stop offset="100%" style="stop-color:rgb(0,0,0); stop-opacity:100"></stop>
        </linearGradient>
        <linearGradient id="gradient-6" x1="50%" y1="0%" x2="50%" y2="100%">
            <stop offset="0%" style="stop-color:rgb(255,255,255); stop-opacity:100"></stop>
            <stop offset="100%" style="stop-color:rgb(0,0,0); stop-opacity:100"></stop>
        </linearGradient>
        <linearGradient id="gradient-7" x1="50%" y1="0%" x2="50%" y2="100%">
            <stop offset="0%" style="stop-color:rgb(255,255,255); stop-opacity:100"></stop>
            <stop offset="100%" style="stop-color:rgb(0,0,0); stop-opacity:100"></stop>
        </linearGradient>
        <linearGradient id="gradient-8" x1="50%" y1="0%" x2="50%" y2="100%">
            <stop offset="0%" style="stop-color:rgb(255,255,255); stop-opacity:100"></stop>
            <stop offset="100%" style="stop-color:rgb(0,0,0); stop-opacity:100"></stop>
        </linearGradient>
        <linearGradient id="gradient-9" x1="50%" y1="0%" x2="50%" y2="100%">
            <stop offset="0%" style="stop-color:rgb(255,255,255); stop-opacity:100"></stop>
            <stop offset="100%" style="stop-color:rgb(0,0,0); stop-opacity:100"></stop>
        </linearGradient>
        <linearGradient id="gradient-10" x1="50%" y1="0%" x2="50%" y2="100%">
            <stop offset="0%" style="stop-color:rgb(255,255,255); stop-opacity:100"></stop>
            <stop offset="100%" style="stop-color:rgb(0,0,0); stop-opacity:100"></stop>
        </linearGradient>
        <linearGradient id="gradient-11" x1="50%" y1="0%" x2="50%" y2="100%">
            <stop offset="0%" style="stop-color:rgb(255,255,255); stop-opacity:100"></stop>
            <stop offset="100%" style="stop-color:rgb(0,0,0); stop-opacity:100"></stop>
        </linearGradient>
        <linearGradient id="gradient-12" x1="50%" y1="0%" x2="50%" y2="100%">
            <stop offset="0%" style="stop-color:rgb(255,255,255); stop-opacity:100"></stop>
            <stop offset="100%" style="stop-color:rgb(0,0,0); stop-opacity:100"></stop>
        </linearGradient>
        <linearGradient id="gradient-13" x1="50%" y1="0%" x2="50%" y2="100%">
            <stop offset="0%" style="stop-color:rgb(255,255,255); stop-opacity:100"></stop>
            <stop offset="100%" style="stop-color:rgb(0,0,0); stop-opacity:100"></stop>
        </linearGradient>
    </defs>
    <g fill="rgb(215,215,215)" id="Page 1">
        <g stroke="rgb(0,0,0)" stroke-width="4" fill="none" id="Path 2"></g>
        <path id="Path 2" d="M97,115 L60,79 L66,70 C66,70 89,36 140,50" stroke="rgb(0,0,0)" stroke-width="4" fill="none"></path>
        <path id="Path 2 decoration" d="" stroke="rgb(0,0,0)" stroke-width="4" fill="none"></path>
        <g stroke="rgb(0,0,0)" stroke-width="4" fill="none" id="Path 3"></g>
        <path id="Path 3" d="M98,114 L52,119 L53,122 C53,122 56,133 63,139" stroke="rgb(0,0,0)" stroke-width="4" fill="none"></path>
        <path id="Path 3 decoration" d="" stroke="rgb(0,0,0)" stroke-width="4" fill="none"></path>
        <g stroke="rgb(0,0,0)" stroke-width="5" fill="none" id="Oval 4"></g>
        <path id="Oval 4" d="M119,99 C124,99 129,94 129,89 C129,83 124,79 119,79 C114,79 110,83 110,89 C110,94 114,99 119,99 L119,99 Z M119,99" stroke="rgb(0,0,0)" stroke-width="5" fill="none"></path>
        <path id="Oval 4 decoration" d="" stroke="rgb(0,0,0)" stroke-width="5" fill="none"></path>
        <g stroke="rgb(0,0,0)" stroke-width="4" fill="none" id="Path 5"></g>
        <path id="Path 5" d="M22,2 L65,2 C65,2 87,0 87,20 C87,40 70,38 70,38 L53,38 L49,37 C49,37 46,36 46,42 C46,48 52,57 56,57 C60,57 34,57 34,47 C34,37 35,35 35,35 C35,35 27,38 21,38 C16,38 2,36 2,22 C2,9 22,2 22,2 Z M22,2" stroke="rgb(0,0,0)" stroke-width="4" fill="none"></path>
        <path id="Path 5 decoration" d="" stroke="rgb(0,0,0)" stroke-width="4" fill="none"></path>
        <g stroke="rgb(0,0,0)" stroke-width="1" fill="rgb(0,0,0)" id="Oval 6"></g>
        <path id="Oval 6" d="M21,22 C22,22 23,21 23,20 C23,18 22,18 21,18 C19,18 19,18 19,20 C19,21 19,22 21,22 Z M21,22" stroke="rgb(0,0,0)" stroke-width="1" fill="rgb(0,0,0)"></path>
        <path id="Oval 6 decoration" d="" stroke="rgb(0,0,0)" stroke-width="1" fill="rgb(0,0,0)"></path>
        <g stroke="rgb(0,0,0)" stroke-width="1" fill="rgb(0,0,0)" id="Oval 6"></g>
        <path id="Oval 6" d="M37,24 C38,24 39,23 39,22 C39,20 38,20 37,20 C35,20 35,20 35,22 C35,23 35,24 37,24 Z M37,24" stroke="rgb(0,0,0)" stroke-width="1" fill="rgb(0,0,0)"></path>
        <path id="Oval 6 decoration" d="" stroke="rgb(0,0,0)" stroke-width="1" fill="rgb(0,0,0)"></path>
        <g stroke="rgb(0,0,0)" stroke-width="1" fill="rgb(0,0,0)" id="Oval 6"></g>
        <path id="Oval 6" d="M53,24 C54,24 55,23 55,22 C55,20 54,20 53,20 C51,20 51,20 51,22 C51,23 51,24 53,24 Z M53,24" stroke="rgb(0,0,0)" stroke-width="1" fill="rgb(0,0,0)"></path>
        <path id="Oval 6 decoration" d="" stroke="rgb(0,0,0)" stroke-width="1" fill="rgb(0,0,0)"></path>
        <g stroke="rgb(0,0,0)" stroke-width="1" fill="rgb(0,0,0)" id="Oval 6"></g>
        <path id="Oval 6" d="M71,24 C72,24 73,23 73,22 C73,20 72,20 71,20 C69,20 69,20 69,22 C69,23 69,24 71,24 Z M71,24" stroke="rgb(0,0,0)" stroke-width="1" fill="rgb(0,0,0)"></path>
        <path id="Oval 6 decoration" d="" stroke="rgb(0,0,0)" stroke-width="1" fill="rgb(0,0,0)"></path>
    </g>
</svg>